<?xml version="1.0" encoding="UTF-8" standalone="no"?>
<!-- Generator: Adobe Illustrator 16.0.0, SVG Export Plug-In . SVG Version: 6.00 Build 0)  -->

<svg
   xmlns:dc="http://purl.org/dc/elements/1.1/"
   xmlns:cc="http://creativecommons.org/ns#"
   xmlns:rdf="http://www.w3.org/1999/02/22-rdf-syntax-ns#"
   xmlns:svg="http://www.w3.org/2000/svg"
   xmlns="http://www.w3.org/2000/svg"
   xmlns:sodipodi="http://sodipodi.sourceforge.net/DTD/sodipodi-0.dtd"
   xmlns:inkscape="http://www.inkscape.org/namespaces/inkscape"
   version="1.1"
   id="レイヤー_1"
   x="0px"
   y="0px"
   width="168"
   height="40"
   viewBox="0 0 168 40"
   enable-background="new 0 0 128 128"
   xml:space="preserve"
   inkscape:version="0.91 r13725"
   sodipodi:docname="lockup.svg"
   inkscape:export-filename="C:\Users\Vijju\Desktop\bitmap.png"
   inkscape:export-xdpi="90"
   inkscape:export-ydpi="90"><metadata
     id="metadata3359"><rdf:RDF><cc:Work
         rdf:about=""><dc:format>image/svg+xml</dc:format><dc:type
           rdf:resource="http://purl.org/dc/dcmitype/StillImage" /><dc:title /></cc:Work></rdf:RDF></metadata><defs
     id="defs3357"><inkscape:perspective
       sodipodi:type="inkscape:persp3d"
       inkscape:vp_x="0 : 20 : 1"
       inkscape:vp_y="0 : 1000 : 0"
       inkscape:vp_z="168 : 20 : 1"
       inkscape:persp3d-origin="84 : 13.333333 : 1"
       id="perspective3341" /></defs><sodipodi:namedview
     pagecolor="#ffffff"
     bordercolor="#666666"
     borderopacity="1"
     objecttolerance="10"
     gridtolerance="10"
     guidetolerance="10"
     inkscape:pageopacity="0"
     inkscape:pageshadow="2"
     inkscape:window-width="1366"
     inkscape:window-height="715"
     id="namedview3355"
     showgrid="false"
     inkscape:zoom="3.6128628"
     inkscape:cx="89.133906"
     inkscape:cy="22.687139"
     inkscape:window-x="-8"
     inkscape:window-y="-8"
     inkscape:window-maximized="1"
     inkscape:current-layer="レイヤー_1" /><g
     id="g3337"
     transform="matrix(0.32740214,0,0,0.33015407,116.49592,-0.99813866)"><g
       id="g3339"><g
         id="g3341"><g
           id="g3343"><path
             d="m 127.22,93.42 c 0,13.86 -28.29,25.1 -63.22,25.1 C 29.08,118.52 0.77,107.28 0.77,93.42 0.77,79.55 2.24,9.48 64,9.48 c 61.77,0 63.22,70.06 63.22,83.94"
             id="path3345"
             inkscape:connector-curvature="0"
             style="fill:#fcc21b" /></g></g><g
         id="g3347"><path
           d="m 48.32,57.41 c 0,5.41 -3.62,9.79 -8.1,9.79 -4.48,0 -8.12,-4.38 -8.12,-9.79 0,-5.42 3.64,-9.8 8.12,-9.8 4.48,0 8.1,4.38 8.1,9.8"
           id="path3349"
           inkscape:connector-curvature="0"
           style="fill:#2f2f2f" /><path
           d="M 66.77,93.4 C 66.05,93.4 65.3,93.37 64.55,93.34 46.73,92.27 39.96,82.61 39.68,82.19 c -1,-1.46 -0.61,-3.44 0.84,-4.43 1.45,-0.98 3.42,-0.61 4.41,0.83 0.25,0.36 5.55,7.52 20,8.37 14.4,0.83 20.68,-8.58 20.75,-8.67 0.94,-1.48 2.93,-1.9 4.4,-0.94 1.47,0.96 1.9,2.93 0.94,4.4 -0.31,0.5 -7.71,11.65 -24.25,11.65 z"
           id="path3351"
           inkscape:connector-curvature="0"
           style="fill:#2f2f2f" /></g></g><path
       d="m 99.71,64.36 c -0.3,1.2 -1.37,1.99 -2.56,1.99 -0.21,0 -0.43,-0.02 -0.63,-0.08 -8.32,-2.06 -18.78,-0.11 -18.87,-0.09 -1.19,0.23 -2.34,-0.37 -2.87,-1.44 -0.53,-1.07 -0.25,-2.36 0.64,-3.14 7.93,-6.9 20.12,-10.95 20.62,-11.11 1.4,-0.45 2.87,0.3 3.33,1.68 0.44,1.38 -0.31,2.87 -1.69,3.32 -0.07,0.02 -5.06,1.67 -10.49,4.56 3.29,-0.1 7.09,0.24 10.59,1.1 1.42,0.37 2.28,1.81 1.93,3.21 z"
       id="path3353"
       inkscape:connector-curvature="0"
       style="fill:#2f2f2f" /></g><text
     xml:space="preserve"
     style="font-style:normal;font-variant:normal;font-weight:normal;font-stretch:normal;font-size:30px;line-height:100%;font-family:Roboto;-inkscape-font-specification:'Roboto, Normal';text-align:start;letter-spacing:0px;word-spacing:0px;writing-mode:lr-tb;text-anchor:start;fill:#ffcc00;fill-opacity:1;stroke:none;stroke-width:1px;stroke-linecap:butt;stroke-linejoin:miter;stroke-opacity:1;"
     x="9.758646"
     y="28.455788"
     id="text3362"
     sodipodi:linespacing="100%"
     transform="scale(0.9989985,1.0010025)"><tspan
       sodipodi:role="line"
       id="tspan3364"
       x="9.758646"
       y="28.455788">Emojify</tspan></text>
</svg>