<?xml version="1.0" encoding="UTF-8" standalone="no"?>
<svg
   xmlns:dc="http://purl.org/dc/elements/1.1/"
   xmlns:cc="http://creativecommons.org/ns#"
   xmlns:rdf="http://www.w3.org/1999/02/22-rdf-syntax-ns#"
   xmlns:svg="http://www.w3.org/2000/svg"
   xmlns="http://www.w3.org/2000/svg"
   xmlns:sodipodi="http://sodipodi.sourceforge.net/DTD/sodipodi-0.dtd"
   xmlns:inkscape="http://www.inkscape.org/namespaces/inkscape"
   viewBox="0 0 64 64"
   id="svg3360"
   version="1.1"
   inkscape:version="0.91 r13725"
   sodipodi:docname="HTML5 Logo Badge 64.svg"
   inkscape:export-filename="C:\Users\Vijju\Desktop\HTML5 Logo Badge.png"
   inkscape:export-xdpi="52.682926"
   inkscape:export-ydpi="52.682926"
   width="64"
   height="64">
  <metadata
     id="metadata3376">
    <rdf:RDF>
      <cc:Work
         rdf:about="">
        <dc:format>image/svg+xml</dc:format>
        <dc:type
           rdf:resource="http://purl.org/dc/dcmitype/StillImage" />
        <dc:title>HTML5 Logo Badge</dc:title>
      </cc:Work>
    </rdf:RDF>
  </metadata>
  <defs
     id="defs3374" />
  <sodipodi:namedview
     pagecolor="#ffffff"
     bordercolor="#666666"
     borderopacity="1"
     objecttolerance="10"
     gridtolerance="10"
     guidetolerance="10"
     inkscape:pageopacity="0"
     inkscape:pageshadow="2"
     inkscape:window-width="1366"
     inkscape:window-height="715"
     id="namedview3372"
     showgrid="false"
     inkscape:zoom="2.6074563"
     inkscape:cx="-49.753809"
     inkscape:cy="93.430695"
     inkscape:window-x="-8"
     inkscape:window-y="-8"
     inkscape:window-maximized="1"
     inkscape:current-layer="svg3360" />
  <title
     id="title3362">HTML5 Logo Badge</title>
  <path
     d="M 9.090909,57.5 4,0 60,0 54.909091,57.5 31.937916,64"
     id="path3364"
     inkscape:connector-curvature="0"
     style="fill:#e34f26" />
  <path
     d="m 32.062084,59 18.501109,-5.125 4.345898,-49.25 -22.847007,0"
     id="path3366"
     inkscape:connector-curvature="0"
     style="fill:#ef652a" />
  <path
     d="m 32.062084,26 -9.312638,0 -0.620843,-7.25 9.933481,0 0,-7 -0.124168,0 -17.507761,0 0.124169,1.875 1.738359,19.5 15.769401,0 z m 0,18.375 -0.124168,0 -7.822617,-2.125 -0.496674,-5.625 -3.725055,0 -3.228382,0 0.86918,11.125 14.403548,4 0.124168,0 z"
     id="path3368"
     inkscape:connector-curvature="0"
     style="fill:#ebebeb" />
  <path
     d="m 31.937916,26 0,7.125 8.691796,0 -0.86918,9.125 -7.822616,2.125 0,7.375 14.403547,-4 L 46.465632,46.5 48.079823,27.875 48.32816,26 46.341463,26 Z m 0,-14.25 0,4.375 0,2.625 0,0 17.011086,0 0,0 0,0 0.124169,-1.5 0.372505,-3.625 0.124169,-1.875 z"
     id="path3370"
     inkscape:connector-curvature="0"
     style="fill:#ffffff" />
</svg>
