<?xml version="1.0" encoding="UTF-8" standalone="no"?>
<svg
   xmlns:dc="http://purl.org/dc/elements/1.1/"
   xmlns:cc="http://creativecommons.org/ns#"
   xmlns:rdf="http://www.w3.org/1999/02/22-rdf-syntax-ns#"
   xmlns:svg="http://www.w3.org/2000/svg"
   xmlns="http://www.w3.org/2000/svg"
   xmlns:sodipodi="http://sodipodi.sourceforge.net/DTD/sodipodi-0.dtd"
   xmlns:inkscape="http://www.inkscape.org/namespaces/inkscape"
   viewBox="0 0 92.375 64"
   id="svg2"
   version="1.1"
   inkscape:version="0.91 r13725"
   sodipodi:docname="Polymer Logo 64.svg"
   width="92.375"
   height="64"
   inkscape:export-filename="C:\Users\Vijju\Desktop\Polymer Logo.png"
   inkscape:export-xdpi="52.734379"
   inkscape:export-ydpi="52.734379">
  <metadata
     id="metadata68">
    <rdf:RDF>
      <cc:Work
         rdf:about="">
        <dc:format>image/svg+xml</dc:format>
        <dc:type
           rdf:resource="http://purl.org/dc/dcmitype/StillImage" />
        <dc:title></dc:title>
      </cc:Work>
    </rdf:RDF>
  </metadata>
  <defs
     id="defs66" />
  <sodipodi:namedview
     pagecolor="#ffffff"
     bordercolor="#666666"
     borderopacity="1"
     objecttolerance="10"
     gridtolerance="10"
     guidetolerance="10"
     inkscape:pageopacity="0"
     inkscape:pageshadow="2"
     inkscape:window-width="1366"
     inkscape:window-height="715"
     id="namedview64"
     showgrid="false"
     inkscape:zoom="5.2149125"
     inkscape:cx="25.591671"
     inkscape:cy="34.225957"
     inkscape:window-x="-8"
     inkscape:window-y="-8"
     inkscape:window-maximized="1"
     inkscape:current-layer="svg2" />
  <path
     d="M 18.556608,32.746307 9.38388,48.730811 18.556608,64.777284 27.729337,48.730811 Z"
     id="path4"
     inkscape:connector-curvature="0"
     style="fill:#303f9f" />
  <path
     d="M 73.654543,0.77728441 64.481814,16.761796 73.654543,32.746307 82.827271,16.761796 Z"
     id="path6"
     inkscape:connector-curvature="0"
     style="fill:#3f51b5" />
  <path
     d="M 55.309085,0.77728441 18.556608,64.777284 l 18.345458,0 36.752477,-63.99999959 z"
     id="path8"
     inkscape:connector-curvature="0"
     style="fill:#ff4080" />
  <path
     d="M 18.556608,0.77728441 0.2111505,32.746307 9.38388,48.730811 36.902066,0.77728441 Z"
     id="path10"
     inkscape:connector-curvature="0"
     style="fill:#536dfe" />
  <path
     d="M 55.309085,0.77728441 64.481814,16.761796 73.654543,0.77728441 Z"
     id="path12"
     inkscape:connector-curvature="0"
     style="fill:#ffffff;fill-opacity:0.2" />
  <path
     d="M 46.074794,16.761796 55.309085,0.77728441 64.481814,16.761796 Z"
     id="path14"
     inkscape:connector-curvature="0"
     style="fill:#ffffff;fill-opacity:0.1" />
  <path
     d="m 46.074794,16.761796 9.234291,15.984511 9.172729,-15.984511 z"
     id="path16"
     inkscape:connector-curvature="0"
     style="fill:none" />
  <path
     d="m 36.902066,32.746307 9.172728,-15.984511 9.234291,15.984511 z"
     id="path18"
     inkscape:connector-curvature="0"
     style="fill-opacity:0.1" />
  <path
     d="m 36.902066,32.746307 9.172728,15.984504 9.234291,-15.984504 z"
     id="path20"
     inkscape:connector-curvature="0"
     style="fill-opacity:0.2" />
  <path
     d="m 27.729337,48.730811 9.172729,-15.984504 9.172728,15.984504 z"
     id="path22"
     inkscape:connector-curvature="0"
     style="fill-opacity:0.3" />
  <path
     d="m 27.729337,48.730811 9.172729,16.046473 9.172728,-16.046473 z"
     id="path24"
     inkscape:connector-curvature="0"
     style="fill-opacity:0.4" />
  <path
     d="m 18.556608,64.777284 9.172729,-16.046473 9.172729,16.046473 z"
     id="path26"
     inkscape:connector-curvature="0"
     style="fill-opacity:0.5" />
  <path
     d="M 18.556608,0.77728441 27.729337,16.761796 36.902066,0.77728441 Z"
     id="path28"
     inkscape:connector-curvature="0"
     style="fill:#ffffff;fill-opacity:0.2" />
  <path
     d="M 9.38388,16.761796 18.556608,0.77728441 27.729337,16.761796 Z"
     id="path30"
     inkscape:connector-curvature="0"
     style="fill:#ffffff;fill-opacity:0.1" />
  <path
     d="m 9.38388,16.761796 9.172728,15.984511 9.172729,-15.984511 z"
     id="path32"
     inkscape:connector-curvature="0"
     style="fill:none" />
  <path
     d="M 0.2111505,32.746307 9.38388,16.761796 18.556608,32.746307 Z"
     id="path34"
     inkscape:connector-curvature="0"
     style="fill-opacity:0.1" />
  <path
     d="M 0.2111505,32.746307 9.38388,48.730811 18.556608,32.746307 Z"
     id="path36"
     inkscape:connector-curvature="0"
     style="fill-opacity:0.2" />
  <path
     d="M 27.729337,48.730811 18.556608,32.746307 9.38388,48.730811 Z"
     id="path38"
     inkscape:connector-curvature="0"
     style="fill:none" />
  <path
     d="M 27.729337,48.730811 18.556608,64.777284 9.38388,48.730811 Z M 82.827271,16.761796 73.654543,0.77728441 64.481814,16.761796 Z"
     id="path40"
     inkscape:connector-curvature="0"
     style="fill-opacity:0.2" />
  <path
     d="M 82.827271,16.761796 73.654543,32.746307 64.481814,16.761796 Z"
     id="path42"
     inkscape:connector-curvature="0"
     style="fill:none" />
  <path
     d="m 82.827271,16.761796 -27.518186,48.015488 18.345458,0 L 92,32.746307 Z"
     id="path44"
     inkscape:connector-curvature="0"
     style="fill:#7986cb" />
  <g
     id="g46"
     style="fill:#ffffff"
     transform="matrix(0.61561938,0,0,0.61955467,-32.84761,-47.857754)">
    <path
       d="m 173,130.1 14.9,-25.8 14.9,25.8 z"
       id="path48"
       inkscape:connector-curvature="0"
       style="fill-opacity:0.2" />
    <path
       d="m 173,130.1 14.9,25.8 14.9,-25.8 z"
       id="path50"
       inkscape:connector-curvature="0"
       style="fill-opacity:0.1" />
  </g>
  <path
     d="m 64.481814,48.730811 9.172729,-15.984504 9.172728,15.984504 z"
     id="path52"
     inkscape:connector-curvature="0"
     style="fill:none" />
  <path
     d="m 64.481814,48.730811 9.172729,16.046473 9.172728,-16.046473 z"
     id="path54"
     inkscape:connector-curvature="0"
     style="fill-opacity:0.1" />
  <path
     d="m 55.309085,64.777284 9.172729,-16.046473 9.172729,16.046473 z"
     id="path56"
     inkscape:connector-curvature="0"
     style="fill-opacity:0.2" />
  <path
     d="m 0,32.597916 31.796777,0 0,32 -31.796777,0 z"
     id="path62"
     inkscape:connector-curvature="0"
     style="fill:none" />
</svg>
